<?xml version="1.0" encoding="UTF-8" standalone="no"?>
<!-- Generator: Adobe Illustrator 19.0.0, SVG Export Plug-In . SVG Version: 6.00 Build 0)  -->

<svg
   xmlns:dc="http://purl.org/dc/elements/1.1/"
   xmlns:cc="http://creativecommons.org/ns#"
   xmlns:rdf="http://www.w3.org/1999/02/22-rdf-syntax-ns#"
   xmlns:svg="http://www.w3.org/2000/svg"
   xmlns="http://www.w3.org/2000/svg"
   xmlns:sodipodi="http://sodipodi.sourceforge.net/DTD/sodipodi-0.dtd"
   xmlns:inkscape="http://www.inkscape.org/namespaces/inkscape"
   version="1.1"
   id="Layer_1"
   x="0px"
   y="0px"
   viewBox="0 0 216.75892 136.35594"
   xml:space="preserve"
   inkscape:version="0.48.4 r9939"
   width="100%"
   height="100%"
   sodipodi:docname="logo.svg"><metadata
     id="metadata33"><rdf:RDF><cc:Work
         rdf:about=""><dc:format>image/svg+xml</dc:format><dc:type
           rdf:resource="http://purl.org/dc/dcmitype/StillImage" /></cc:Work></rdf:RDF></metadata><defs
     id="defs31" /><sodipodi:namedview
     pagecolor="#ffffff"
     bordercolor="#666666"
     borderopacity="1"
     objecttolerance="10"
     gridtolerance="10"
     guidetolerance="10"
     inkscape:pageopacity="0"
     inkscape:pageshadow="2"
     inkscape:window-width="1920"
     inkscape:window-height="1053"
     id="namedview29"
     showgrid="false"
     fit-margin-top="0"
     fit-margin-left="0"
     fit-margin-right="0"
     fit-margin-bottom="0"
     inkscape:zoom="2.3838384"
     inkscape:cx="105.30275"
     inkscape:cy="14.131754"
     inkscape:window-x="0"
     inkscape:window-y="0"
     inkscape:window-maximized="1"
     inkscape:current-layer="Layer_1" /><style
     type="text/css"
     id="style3">
	.st0{fill:#DA1C5C;}
	.st1{fill:#FFFFFF;}
	.st2{fill:#DA1C5C;stroke:#DA1C5C;stroke-width:0.2;stroke-miterlimit:10;}
</style><g
     id="g3010"
     transform="matrix(0.7271002,0,0,0.7271002,-25.69782,-3.3551405)"><circle
       transform="matrix(0.80833578,0,0,0.80833578,-54.301546,-211.77708)"
       style="fill:#da1c5c"
       sodipodi:ry="116"
       sodipodi:rx="116"
       sodipodi:cy="383.70001"
       sodipodi:cx="226.89999"
       r="116"
       cy="383.70001"
       cx="226.89999"
       class="st0"
       id="XMLID_145_"
       d="m 342.89999,383.70001 c 0,64.06503 -51.93497,116 -116,116 -64.06503,0 -116,-51.93497 -116,-116 0,-64.06503 51.93497,-116 116,-116 64.06503,0 116,51.93497 116,116 z" /><circle
       transform="matrix(0.80833578,0,0,0.80833578,-54.301546,-211.77708)"
       sodipodi:ry="113.1"
       sodipodi:rx="113.1"
       sodipodi:cy="383.70001"
       sodipodi:cx="226.89999"
       r="113.1"
       cy="383.70001"
       cx="226.89999"
       id="XMLID_146_"
       d="m 339.99999,383.70001 c 0,62.46341 -50.63659,113.1 -113.1,113.1 -62.4634,0 -113.09999,-50.63659 -113.09999,-113.1 0,-62.4634 50.63659,-113.1 113.09999,-113.1 62.46341,0 113.1,50.6366 113.1,113.1 z" /><path
       style="fill:#da1c5c"
       inkscape:connector-curvature="0"
       d="M 182.46,24.095295 C 197.73755,13.34443 219.64345,4.6144028 239.69018,4.6144028 c 51.81432,0 93.76695,41.9526272 93.76695,93.7669532 0,51.814324 -41.95263,93.766954 -93.76695,93.766954 -51.81433,0 -93.76695,-41.95263 -93.76695,-93.766954 0,-28.776756 13.2567,-54.724335 33.62676,-71.941887"
       class="st0"
       id="XMLID_156_" /><circle
       transform="matrix(0.80833578,0,0,0.80833578,-54.301546,-211.77708)"
       sodipodi:ry="113.1"
       sodipodi:rx="113.1"
       sodipodi:cy="383.70001"
       sodipodi:cx="226.89999"
       r="113.1"
       cy="383.70001"
       cx="226.89999"
       id="XMLID_170_"
       d="m 339.99999,383.70001 c 0,62.46341 -50.63659,113.1 -113.1,113.1 -62.4634,0 -113.09999,-50.63659 -113.09999,-113.1 0,-62.4634 50.63659,-113.1 113.09999,-113.1 62.46341,0 113.1,50.6366 113.1,113.1 z" /><circle
       transform="matrix(0.80833578,0,0,0.80833578,-54.301546,-211.77708)"
       style="fill:#ffffff"
       sodipodi:ry="108.7"
       sodipodi:rx="108.7"
       sodipodi:cy="383.70001"
       sodipodi:cx="226.89999"
       r="108.7"
       cy="383.70001"
       cx="226.89999"
       class="st1"
       id="XMLID_144_"
       d="m 335.59999,383.70001 c 0,60.03335 -48.66665,108.7 -108.7,108.7 -60.03335,0 -108.69999,-48.66665 -108.69999,-108.7 0,-60.03335 48.66664,-108.69999 108.69999,-108.69999 60.03335,0 108.7,48.66664 108.7,108.69999 z" /><path
       inkscape:connector-curvature="0"
       d="m 239.69018,6.8777438 c -20.9359,0 -40.25513,7.0325212 -55.6135,18.8342232 -0.16167,0.161667 -0.32334,0.323334 -0.56584,0.404168 0.2425,0.485001 0.485,1.050836 0.485,1.616671 -0.64667,-0.646668 -1.29334,-0.565835 -1.85917,-0.404167 -20.61256,16.73255 -33.86927,42.356794 -33.86927,70.971887 0,50.520984 40.98262,91.422774 91.42278,91.422774 50.52098,0 91.42277,-40.98263 91.42277,-91.422774 0,-50.440159 -40.90179,-91.4227822 -91.42277,-91.4227822 z"
       id="XMLID_161_" /><circle
       transform="matrix(0.80833578,0,0,0.80833578,-54.301546,-211.77708)"
       style="fill:#ffffff"
       sodipodi:ry="108.7"
       sodipodi:rx="108.7"
       sodipodi:cy="383.70001"
       sodipodi:cx="363.70001"
       r="108.7"
       cy="383.70001"
       cx="363.70001"
       class="st1"
       id="XMLID_153_"
       d="m 472.40001,383.70001 c 0,60.03335 -48.66665,108.7 -108.7,108.7 -60.03335,0 -108.69999,-48.66665 -108.69999,-108.7 0,-60.03335 48.66664,-108.69999 108.69999,-108.69999 60.03335,0 108.7,48.66664 108.7,108.69999 z" /><circle
       transform="matrix(0.80833578,0,0,0.80833578,-54.301546,-211.77708)"
       sodipodi:ry="27.700001"
       sodipodi:rx="27.700001"
       sodipodi:cy="383.70001"
       sodipodi:cx="226.89999"
       r="27.700001"
       cy="383.70001"
       cx="226.89999"
       id="XMLID_148_"
       d="m 254.59999,383.70001 c 0,15.29829 -12.40171,27.7 -27.7,27.7 -15.29828,0 -27.7,-12.40171 -27.7,-27.7 0,-15.29829 12.40172,-27.7 27.7,-27.7 15.29829,0 27.7,12.40171 27.7,27.7 z" /><circle
       transform="matrix(0.80833578,0,0,0.80833578,-54.301546,-211.77708)"
       style="fill:#da1c5c"
       sodipodi:ry="1.7"
       sodipodi:rx="1.7"
       sodipodi:cy="383.70001"
       sodipodi:cx="226.89999"
       r="1.7"
       cy="383.70001"
       cx="226.89999"
       class="st0"
       id="XMLID_149_"
       d="m 228.59999,383.70001 c 0,0.93889 -0.76111,1.7 -1.7,1.7 -0.93888,0 -1.7,-0.76111 -1.7,-1.7 0,-0.93888 0.76112,-1.7 1.7,-1.7 0.93889,0 1.7,0.76112 1.7,1.7 z" /><path
       inkscape:connector-curvature="0"
       d="m 183.91501,27.81364 c 0,-0.565835 -0.16167,-1.050837 -0.485,-1.616672 -0.485,0.404168 -0.97001,0.808336 -1.45501,1.131671 0.64667,-0.161668 1.29334,-0.161668 1.94001,0.485001 z"
       id="XMLID_160_" /><circle
       transform="matrix(0.80833578,0,0,0.80833578,-54.301546,-211.77708)"
       sodipodi:ry="27.700001"
       sodipodi:rx="27.700001"
       sodipodi:cy="383.70001"
       sodipodi:cx="363.70001"
       r="27.700001"
       cy="383.70001"
       cx="363.70001"
       id="XMLID_152_"
       d="m 391.40001,383.70001 c 0,15.29829 -12.40171,27.7 -27.7,27.7 -15.29829,0 -27.7,-12.40171 -27.7,-27.7 0,-15.29829 12.40171,-27.7 27.7,-27.7 15.29829,0 27.7,12.40171 27.7,27.7 z" /><path
       inkscape:connector-curvature="0"
       d="m 217.29928,96.926356 c 0,0.0808 -2.42501,9.457534 -3.39501,9.619194 0,0.0808 0.0808,0.2425 0.0808,0.32334 0.40417,1.2125 0.40417,2.425 0.16167,3.63751 -0.0808,1.2125 -0.40417,2.34417 -1.05084,3.39501 -0.0808,0.2425 -0.2425,0.485 -0.40417,0.7275 -0.80833,1.2125 -1.77834,2.10166 -2.82917,2.91 -0.485,1.53584 -1.21251,2.99084 -2.34418,4.44585 -1.13167,1.53584 -2.50584,2.58667 -3.96084,3.23334 -3.31418,6.87085 -6.87086,13.66088 -9.8617,20.6934 -3.23334,7.59835 -7.03252,14.46921 -12.5292,20.20839 -0.32334,2.99085 1.2125,2.02084 -1.69751,4.28418 -0.80833,0.64667 -2.99084,5.98169 -3.71834,6.70919 26.75591,-15.92422 42.19512,-45.91347 44.7818,-78.651074 0,-0.40416 1.61667,-15.35838 -3.23334,-1.53583 z"
       id="XMLID_30_" /><circle
       transform="matrix(0.80833578,0,0,0.80833578,-54.301546,-211.77708)"
       style="fill:#da1c5c"
       sodipodi:ry="1.7"
       sodipodi:rx="1.7"
       sodipodi:cy="383.70001"
       sodipodi:cx="363.70001"
       r="1.7"
       cy="383.70001"
       cx="363.70001"
       class="st0"
       id="XMLID_151_"
       d="m 365.40001,383.70001 c 0,0.93889 -0.76111,1.7 -1.7,1.7 -0.93888,0 -1.7,-0.76111 -1.7,-1.7 0,-0.93888 0.76112,-1.7 1.7,-1.7 0.93889,0 1.7,0.76112 1.7,1.7 z" /><path
       style="fill:#ffffff"
       inkscape:connector-curvature="0"
       d="m 201.9409,109.29389 c -2.50585,-2.91 -4.52668,-6.54752 -7.19419,-9.376694 -1.53584,2.344174 -3.96085,4.041684 -7.19419,3.880014 -11.15503,-0.485 -22.31007,-1.05084 -33.38427,-1.6975 -0.80833,1.13167 -0.97,-7.032534 -2.34417,-6.466694 0.2425,3.88001 -0.7275,11.882544 -6.46669,18.268394 -0.40417,0.64667 -0.80833,1.29334 -1.37417,1.85917 -0.32333,0.32333 -0.64667,0.56583 -1.05084,0.88916 0.2425,7.76002 -0.485,15.19671 -1.77833,22.47174 2.99084,2.58667 5.33501,5.82001 8.64919,8.64919 4.12251,3.47584 3.55668,8.00252 0.97,11.23587 1.94001,3.63751 3.79918,6.62835 7.67919,9.37669 5.73918,3.96085 4.36501,4.36501 11.0742,4.44585 1.37417,0 2.66751,0.0808 3.96085,0.0808 1.6975,-0.88917 3.39501,-2.02084 5.41585,-2.91001 0.40416,-0.16166 1.05083,-0.40417 1.77833,-0.56583 10.3467,-7.51752 32.09094,-31.0401 36.53678,-71.941884 -8.00252,2.667514 -10.42753,26.836744 -10.26586,18.430064 0,-1.37417 0.0808,-2.74834 0.0808,-4.04168 -1.85917,-0.2425 -3.63751,-0.97 -5.09251,-2.58668 z"
       class="st1"
       id="XMLID_214_" /></g></svg>